<svg width="29" height="27" viewBox="0 0 29 27" fill="none" xmlns="http://www.w3.org/2000/svg">
<path d="M6.12091 0.846873C5.95385 0.367123 5.27483 0.367123 5.10238 0.846873L2.05758 10.2694H9.17109C9.1657 10.2694 6.12091 0.846873 6.12091 0.846873ZM0.500158 15.013C0.360044 15.4442 0.516326 15.924 0.882779 16.1989L14.2422 26.1173L2.0522 10.2694L0.500158 15.013ZM9.1657 10.2694L14.2475 26.1173L19.3294 10.2694H9.1657ZM27.9949 15.013L26.4429 10.2694L14.2475 26.1173L27.6069 16.1989C27.9788 15.924 28.1297 15.4442 27.9949 15.013ZM23.3927 0.846873C23.2257 0.367123 22.5466 0.367123 22.3742 0.846873L19.324 10.2694H26.4375L23.3927 0.846873Z" fill="black"/>
</svg>
