<svg width="26" height="27" viewBox="0 0 26 27" fill="none" xmlns="http://www.w3.org/2000/svg">
<path d="M13.011 6.92806C9.32395 6.92806 6.34831 9.95944 6.34831 13.7156C6.34831 17.4717 9.32395 20.5031 13.011 20.5031C16.6981 20.5031 19.6737 17.4717 19.6737 13.7156C19.6737 9.95944 16.6981 6.92806 13.011 6.92806ZM13.011 18.1269C10.6266 18.1269 8.68074 16.1446 8.68074 13.7156C8.68074 11.2865 10.6266 9.30419 13.011 9.30419C15.3954 9.30419 17.3413 11.2865 17.3413 13.7156C17.3413 16.1446 15.3954 18.1269 13.011 18.1269ZM19.9466 5.0682C19.0857 5.0682 18.3905 5.77641 18.3905 6.65339C18.3905 7.53037 19.0857 8.23857 19.9466 8.23857C20.8074 8.23857 21.5026 7.53368 21.5026 6.65339C21.5029 6.44514 21.4628 6.2389 21.3847 6.04645C21.3066 5.85401 21.192 5.67916 21.0474 5.53191C20.9029 5.38466 20.7313 5.26791 20.5424 5.18833C20.3535 5.10876 20.151 5.06794 19.9466 5.0682ZM25.9986 13.7156C25.9986 11.8888 26.0148 10.0786 25.9141 8.25512C25.8134 6.13713 25.3391 4.25741 23.8188 2.70863C22.2953 1.15654 20.4533 0.676678 18.3743 0.574088C16.5811 0.471498 14.8042 0.488045 13.0143 0.488045C11.2211 0.488045 9.44414 0.471498 7.65421 0.574088C5.57517 0.676678 3.73001 1.15985 2.20971 2.70863C0.686157 4.26072 0.215123 6.13713 0.114419 8.25512C0.0137153 10.0819 0.0299579 11.8921 0.0299579 13.7156C0.0299579 15.539 0.0137153 17.3526 0.114419 19.176C0.215123 21.294 0.689406 23.1737 2.20971 24.7225C3.73326 26.2746 5.57517 26.7545 7.65421 26.857C9.44739 26.9596 11.2243 26.9431 13.0143 26.9431C14.8074 26.9431 16.5844 26.9596 18.3743 26.857C20.4533 26.7545 22.2985 26.2713 23.8188 24.7225C25.3424 23.1704 25.8134 21.294 25.9141 19.176C26.018 17.3526 25.9986 15.5423 25.9986 13.7156ZM23.1399 21.519C22.9027 22.1213 22.6169 22.5714 22.1588 23.0347C21.7008 23.5014 21.2622 23.7926 20.671 24.0342C18.9623 24.7258 14.9049 24.5703 13.011 24.5703C11.1171 24.5703 7.05649 24.7258 5.34777 24.0375C4.75654 23.7959 4.31474 23.5047 3.85995 23.038C3.40191 22.5714 3.11604 22.1247 2.8789 21.5224C2.20321 19.7783 2.35589 15.6449 2.35589 13.7156C2.35589 11.7862 2.20321 7.64951 2.8789 5.90878C3.11604 5.30648 3.40191 4.8564 3.85995 4.39309C4.31799 3.92978 4.75654 3.63525 5.34777 3.39367C7.05649 2.70532 11.1171 2.86086 13.011 2.86086C14.9049 2.86086 18.9655 2.70532 20.6742 3.39367C21.2655 3.63525 21.7073 3.92647 22.1621 4.39309C22.6201 4.85971 22.906 5.30648 23.1431 5.90878C23.8188 7.64951 23.6661 11.7862 23.6661 13.7156C23.6661 15.6449 23.8188 19.7783 23.1399 21.519Z" fill="black"/>
</svg>
