<svg width="28" height="27" viewBox="0 0 28 27" fill="none" xmlns="http://www.w3.org/2000/svg">
<path d="M6.55813 26.1173V8.82462H0.816996V26.1173H6.55813ZM3.68831 6.46218C5.69034 6.46218 6.93651 5.1343 6.93651 3.4749C6.89921 1.77808 5.69042 0.487061 3.7263 0.487061C1.76249 0.487061 0.478271 1.77811 0.478271 3.4749C0.478271 5.13438 1.72414 6.46218 3.65083 6.46218H3.68813H3.68831ZM9.73584 26.1173H15.477V16.4602C15.477 15.9434 15.5143 15.4271 15.6659 15.0576C16.0809 14.025 17.0256 12.9555 18.6115 12.9555C20.689 12.9555 21.5201 14.5413 21.5201 16.866V26.1172H27.2609V16.2017C27.2609 10.8901 24.4285 8.41863 20.6512 8.41863C17.5541 8.41863 16.1942 10.1518 15.4388 11.3323H15.4771V8.82426H9.73596C9.81131 10.4469 9.73596 26.1169 9.73596 26.1169L9.73584 26.1173Z" fill="black"/>
</svg>
