<svg width="39" height="40" viewBox="0 0 39 40" fill="none" xmlns="http://www.w3.org/2000/svg">
<path d="M7.31387 32.1441C7.39508 32.5767 7.14406 32.9866 6.72324 33.0776C6.32457 33.1611 5.91851 32.9031 5.8373 32.4705C5.75609 32.0606 6.00711 31.628 6.40578 31.537C6.80445 31.4459 7.22527 31.7115 7.31387 32.1441ZM17.8787 37.563C17.4136 37.9122 17.2881 38.58 17.6055 39.0809C17.9451 39.5818 18.5948 39.7109 19.0821 39.3617C19.5472 39.0126 19.6727 38.3448 19.3331 37.8438C19.023 37.3505 18.366 37.2139 17.8787 37.563ZM11.5295 2.47676C11.9946 2.37051 12.2899 1.89237 12.1865 1.41423C12.1053 0.913321 11.6402 0.609741 11.1751 0.723584C10.71 0.829837 10.4147 1.30798 10.5033 1.78611C10.6066 2.28702 11.0643 2.5906 11.5295 2.47676ZM2.54456 17.8759C1.80627 17.3522 0.794825 17.5495 0.28541 18.3312C-0.224006 19.0902 -0.0320522 20.1527 0.706231 20.6764C1.44451 21.2152 2.45596 21.0255 2.96538 20.2438C3.47479 19.4545 3.28284 18.4147 2.54456 17.8759ZM22.6259 4.9054C23.4084 4.42726 23.6373 3.3875 23.1943 2.60578C22.7292 1.80129 21.7399 1.54325 20.9795 2.02139C20.2191 2.49953 19.968 3.53929 20.4332 4.34378C20.8761 5.1255 21.8654 5.38354 22.6259 4.9054ZM8.51727 9.30731C9.08575 8.89748 9.21126 8.09299 8.83473 7.5086C8.45821 6.92421 7.67563 6.79519 7.1293 7.18225C6.56082 7.59209 6.43531 8.39657 6.81183 8.98096C7.18836 9.57295 7.96356 9.70197 8.51727 9.30731ZM36.0036 21.1469C35.4572 21.276 35.0955 21.8376 35.221 22.4296C35.3243 22.9912 35.8781 23.3631 36.4244 23.2341C36.9707 23.1278 37.3325 22.5586 37.207 21.9742C37.0962 21.4126 36.5499 21.0407 36.0036 21.1469ZM38.9345 16.8361C38.8533 16.4035 38.4473 16.1455 38.0486 16.2289C37.6278 16.3124 37.3768 16.7526 37.458 17.1852C37.5392 17.5951 37.9452 17.8759 38.3661 17.7924C38.7647 17.6785 39.0379 17.2687 38.9345 16.8361ZM33.0061 11.2426C32.3712 11.698 32.2235 12.586 32.6444 13.2387C33.0652 13.8914 33.929 14.0432 34.5639 13.6106C35.1767 13.1552 35.3243 12.2672 34.9035 11.6145C34.4827 10.9542 33.6189 10.7873 33.0061 11.2426ZM32.541 21.8224C34.4827 25.0935 33.6558 29.4119 30.5993 31.6205C29.3147 32.554 27.8603 32.9638 26.3985 32.9183C25.5126 36.4929 21.2748 37.8211 18.6391 35.3924C18.5579 35.4607 18.4472 35.5215 18.366 35.6125C15.4793 37.6693 11.5516 36.9331 9.55087 33.9201C8.83473 32.8348 8.47297 31.5977 8.43606 30.3606C3.60768 29.5333 1.79151 23.2265 5.40171 19.7581C3.31237 16.1986 5.44601 11.6069 9.34415 11.0377C11.1972 6.01347 17.2881 3.63036 21.4225 6.92421C26.3985 5.23175 31.4853 9.15552 31.0866 14.5972C34.1209 15.5535 34.9847 19.6746 32.541 21.8224ZM27.373 27.4614C27.1442 25.898 24.3534 27.1123 24.191 25.4046C23.9622 22.976 27.4173 17.7317 27.1442 15.6901C26.8931 13.8686 25.7119 13.4815 24.6783 13.4588C23.689 13.436 23.4306 13.6106 23.0984 13.8079C22.8843 13.9369 22.6111 14.1798 22.2346 13.7851C21.7695 13.3298 21.4151 12.8971 20.8023 12.8061C19.8942 12.6543 19.4955 12.9579 18.8385 13.5423C18.5875 13.7624 17.9525 14.5213 17.3619 14.2329C17.1109 14.1039 16.2249 13.6485 15.59 13.3677C14.3866 12.8288 12.6369 13.7168 12.002 14.8856C11.0496 16.6236 9.19649 23.4693 8.92333 24.3801C8.2884 26.3989 9.72805 28.0686 11.6476 27.9547C12.4671 27.9092 12.9987 27.6056 13.5228 26.6342C13.8181 26.0725 16.6015 18.4603 16.8156 18.0884C16.9632 17.8303 17.4726 17.4812 17.8935 17.7013C18.3143 17.9366 18.4029 18.4147 18.3364 18.8473C18.2552 19.5835 16.2692 24.2283 16.2028 24.7444C15.9518 26.4824 18.1888 26.7632 19.0526 25.0479C19.3257 24.5091 22.4265 18.0201 22.6997 17.5875C23.0172 17.1093 23.246 16.9575 23.5635 16.9803C23.7924 16.9803 24.1763 17.0486 24.0877 17.8076C23.9843 18.521 21.4963 23.2948 21.2157 24.4636C20.8761 26.027 21.703 27.6056 23.0541 28.3038C23.8957 28.7364 27.6683 29.4954 27.373 27.4614ZM27.7938 34.4665C27.0334 35.0281 26.8415 36.1362 27.373 36.9407C27.8972 37.7452 28.953 37.9349 29.7355 37.3961C30.5181 36.8344 30.7027 35.7264 30.1785 34.9219C29.6322 34.1174 28.5764 33.8973 27.7938 34.4665Z" fill="black"/>
</svg>
