<svg width="33" height="26" viewBox="0 0 33 26" fill="none" xmlns="http://www.w3.org/2000/svg">
<path d="M32.6232 3.18518C31.4592 3.68565 30.1925 4.04584 28.8878 4.18612C30.2424 3.38398 31.2568 2.11674 31.7407 0.622155C30.4695 1.37585 29.077 1.90436 27.6249 2.18423C27.0179 1.53751 26.2839 1.0223 25.4685 0.670714C24.653 0.319124 23.7737 0.138685 22.8852 0.140641C19.2905 0.140641 16.3996 3.04489 16.3996 6.60886C16.3996 7.10933 16.4605 7.6098 16.5594 8.09132C11.1768 7.81075 6.37634 5.24773 3.18487 1.32357C2.60335 2.31358 2.29862 3.44082 2.30237 4.58801C2.30237 6.83255 3.44734 8.81169 5.19333 9.97567C4.16439 9.93528 3.15955 9.65339 2.26053 9.15292V9.23254C2.26053 12.3757 4.48961 14.9804 7.46045 15.5794C6.90264 15.7239 6.32881 15.7977 5.7525 15.7993C5.33027 15.7993 4.93086 15.7576 4.52765 15.7008C5.34929 18.2638 7.74193 20.1254 10.591 20.186C8.36197 21.9263 5.56991 22.95 2.53821 22.95C1.99426 22.95 1.49214 22.9311 0.971008 22.8704C3.84675 24.7092 7.25884 25.7709 10.9334 25.7709C22.8624 25.7709 29.3899 15.9207 29.3899 7.37094C29.3899 7.09037 29.3899 6.8098 29.3709 6.52924C30.6337 5.60791 31.7407 4.46669 32.6232 3.18518Z" fill="black"/>
</svg>
